<svg xmlns="http://www.w3.org/2000/svg" width="24" height="24"><path fill="none" d="M0 0h24v24H0Z" data-name="Path 3622"/><path fill="#fff" d="M5.1 21.6a2.7 2.7 0 0 1-2.7-2.7V5.1a2.7 2.7 0 0 1 2.7-2.7h8.7a.9.9 0 0 1 0 1.8H5.1a.9.9 0 0 0-.9.9v13.8a.9.9 0 0 0 .9.9h13.8a.9.9 0 0 0 .9-.9v-8.4a.9.9 0 1 1 1.8 0v8.4a2.7 2.7 0 0 1-2.7 2.7Zm1.971-5.2.634-3.713a.014.014 0 0 1 0-.008l4.24-4.24 5.517-5.512a1.793 1.793 0 0 1 1.272-.527 1.812 1.812 0 0 1 1.282.53l.527.527.53.53a1.8 1.8 0 0 1 0 2.545l-5.516 5.517-4.238 4.24a.016.016 0 0 1-.008 0l-3.713.633a.464.464 0 0 1-.078.007.456.456 0 0 1-.449-.529Zm6.149-6.685-3.84 3.84-.219 1.28 1.28-.219 3.84-3.84L19.8 5.261l-.53-.53-.53-.53Z" data-name="Path 2689"/></svg>