<svg xmlns="http://www.w3.org/2000/svg" viewBox="0 0 300 110.71"><defs><style>.cls-1{fill:#fff;}</style></defs><title>QRIS</title><g id="Layer_2" data-name="Layer 2"><g id="Layer_1-2" data-name="Layer 1"><polygon class="cls-1" points="287.71 67.86 287.71 58.33 287.71 39.29 259.14 39.29 240.09 39.29 240.09 29.76 287.71 29.76 287.71 10.71 240.09 10.71 211.52 10.71 211.52 29.76 211.52 39.29 211.52 58.33 240.09 58.33 259.14 58.33 259.14 67.86 211.52 67.86 211.52 86.91 259.14 86.91 287.71 86.91 287.71 67.86"/><rect class="cls-1" x="182.95" y="10.71" width="19.05" height="76.19"/><polygon class="cls-1" points="97.24 10.71 97.24 29.76 154.38 29.76 154.38 39.29 116.28 39.29 97.24 39.29 97.24 58.33 97.24 86.91 116.28 86.91 116.28 58.62 144.86 86.91 173.43 86.91 143.62 58.33 154.38 58.33 173.43 58.33 173.43 39.29 173.43 29.76 173.43 10.71 154.38 10.71 97.24 10.71"/><path class="cls-1" d="M40.09,58.33h19v-19h-19Zm4.77-14.28h9.52v9.52H44.86Z"/><path class="cls-1" d="M30.57,10.71H13.9a2.41,2.41,0,0,0-1.68.7,2.38,2.38,0,0,0-.7,1.69V84.52a2.38,2.38,0,0,0,.7,1.69,2.4,2.4,0,0,0,1.68.69H59.14v-19H30.57Z"/><path class="cls-1" d="M85.33,10.71H40.09V29.76H68.67V58.33h19V13.1A2.41,2.41,0,0,0,87,11.41,2.44,2.44,0,0,0,85.33,10.71Z"/><rect class="cls-1" x="68.67" y="67.86" width="19.05" height="42.86"/><path class="cls-1" d="M38.1,0H2.38A2.39,2.39,0,0,0,0,2.38V38.1H4.76v-31A2.39,2.39,0,0,1,7.14,4.76h31Z"/><path class="cls-1" d="M295.24,61.9v31a2.39,2.39,0,0,1-2.38,2.38h-31V100h35.72A2.39,2.39,0,0,0,300,97.62V61.9Z"/></g></g></svg>