<svg xmlns="http://www.w3.org/2000/svg" fill="#bac8cc" viewBox="0 0 32 32"><g data-name="youtube youtuber video play"><path d="M30 12a5.71 5.71 0 0 0-5.31-5.7C18.92 6 13.06 6 7.33 6.28 4.51 6.28 2 9 2 12a43.69 43.69 0 0 0 0 8.72 5.32 5.32 0 0 0 5.28 5.33q4.35.24 8.72.24t8.67-.23A5.34 5.34 0 0 0 30 20.8a31.67 31.67 0 0 0 0-8.8Zm-2 8.63a.49.49 0 0 0 0 .12 3.36 3.36 0 0 1-3.39 3.34 166 166 0 0 1-17.28 0A3.36 3.36 0 0 1 4 20.65a42 42 0 0 1 0-8.47.45.45 0 0 0 0-.11 3.78 3.78 0 0 1 3.38-3.79c2.86-.13 5.74-.19 8.62-.19s5.76.06 8.62.19h.05c1.71 0 3.33 1.84 3.33 3.79a.76.76 0 0 0 0 .15 30.11 30.11 0 0 1 0 8.39Z"/><path d="m20.79 15.51-7.14-3.68a1 1 0 1 0-.92 1.78l5.43 2.79-4 2.07V16.4a1 1 0 0 0-2 0v3.72a1 1 0 0 0 1 1 1 1 0 0 0 .46-.11l7.14-3.72a1 1 0 0 0 .54-.89 1 1 0 0 0-.51-.89Z"/></g></svg>