<svg xmlns="http://www.w3.org/2000/svg" fill="#bac8cc" viewBox="0 0 32 32"><path d="M24 3H8a5 5 0 0 0-5 5v16a5 5 0 0 0 5 5h8a1 1 0 0 0 1-1v-8a1 1 0 0 0-1-1h-1v-2h1a1 1 0 0 0 1-1v-3.5a2.5 2.5 0 0 1 2.5-2.5H22v2h-1a2 2 0 0 0-2 2v2a1 1 0 0 0 1 1h1.72l-.5 2H20a1 1 0 0 0-1 1v4a1 1 0 0 0 2 0v-3h1a1 1 0 0 0 1-.76l1-4a1 1 0 0 0-.18-.86A1 1 0 0 0 23 15h-2v-1h2a1 1 0 0 0 1-1V9a1 1 0 0 0-1-1h-3.5a4.51 4.51 0 0 0-4.5 4.5V15h-1a1 1 0 0 0-1 1v4a1 1 0 0 0 1 1h1v6H8a3 3 0 0 1-3-3V8a3 3 0 0 1 3-3h16a3 3 0 0 1 3 3v16a3 3 0 0 1-3 3h-4a1 1 0 0 0 0 2h4a5 5 0 0 0 5-5V8a5 5 0 0 0-5-5Z" data-name="facebook fb face book"/></svg>