<svg xmlns="http://www.w3.org/2000/svg" fill="#bac8cc" viewBox="0 0 32 32"><path d="M6.5 3A3.5 3.5 0 1 0 10 6.5 3.5 3.5 0 0 0 6.5 3zm0 5A1.5 1.5 0 1 1 8 6.5 1.5 1.5 0 0 1 6.5 8zM9 11H4a1 1 0 0 0 0 2h4v14H5V16a1 1 0 0 0-2 0v12a1 1 0 0 0 1 1h5a1 1 0 0 0 1-1V12a1 1 0 0 0-1-1zm18.34 1.68A5.94 5.94 0 0 0 23 11h-1a7.84 7.84 0 0 0-4 .89 1 1 0 0 0-1-.89h-5a1 1 0 0 0-1 1v16a1 1 0 0 0 1 1h5a1 1 0 0 0 1-1v-9a2 2 0 0 1 4 0v9a1 1 0 0 0 1 1h5a1 1 0 0 0 1-1V17a5.9 5.9 0 0 0-1.66-4.32zM27 27h-3v-8a4 4 0 0 0-8 0v8h-3V13h3v1a1 1 0 0 0 .62.92 1 1 0 0 0 1.09-.21c.95-1 1.7-1.71 4.29-1.71h1a4 4 0 0 1 2.92 1.09A4 4 0 0 1 27 17z" data-name="in linkedin portfolio social media"/></svg>